<?xml version="1.0" encoding="UTF-8"?>
<svg id="_圖層_1" data-name="圖層 1" xmlns="http://www.w3.org/2000/svg" viewBox="0 0 510.57 510.57">
  <defs>
    <style>
      .cls-1 {
        fill: #939393;
        stroke-width: 0px;
      }
    </style>
  </defs>
  <path class="cls-1" d="M487.03,0H23.55C10.54,0,0,10.54,0,23.55v463.48c0,13,10.54,23.55,23.55,23.55h463.48c13,0,23.55-10.54,23.55-23.55V23.55c0-13-10.54-23.55-23.55-23.55ZM175.24,361.31v52.48h-79.1v-82.48h79.1v30ZM175.24,245.41v48.46h-79.1v-78.46h79.1v30ZM175.24,125.49v52.48h-79.1v-82.48h79.1v30ZM294.4,361.31v52.48h-78.22v-82.48h78.22v30ZM294.4,245.41v48.46h-78.22v-78.46h78.22v30ZM294.4,125.49v52.48h-78.22v-82.48h78.22v30ZM414.43,413.79h-79.1v-82.48h79.1v82.48ZM414.43,293.87h-79.1v-78.46h79.1v78.46ZM414.43,177.97h-79.1v-82.48h79.1v82.48Z"/>
</svg>