<svg id="Layer_1" viewBox="0 0 24 24" xmlns="http://www.w3.org/2000/svg"><path d="m4 11v-5c0-1.1.9-2 2-2h12c1.1 0 2 .9 2 2v5z" fill="#3ae4de"/><path d="m6 18c-1.1 0-2-.9-2-2v-5h16v5c0 1.1-.9 2-2 2z" fill="#deffff"/><path d="m18 18.5h-1c-.28 0-.5-.22-.5-.5s.22-.5.5-.5h1c.83 0 1.5-.67 1.5-1.5v-10c0-.83-.67-1.5-1.5-1.5h-12c-.83 0-1.5.67-1.5 1.5v10c0 .83.67 1.5 1.5 1.5h1c.28 0 .5.22.5.5s-.22.5-.5.5h-1c-1.38 0-2.5-1.12-2.5-2.5v-10c0-1.38 1.12-2.5 2.5-2.5h12c1.38 0 2.5 1.12 2.5 2.5v10c0 1.38-1.12 2.5-2.5 2.5z"/><path d="m20 11.5h-16c-.28 0-.5-.22-.5-.5s.22-.5.5-.5h16c.28 0 .5.22.5.5s-.22.5-.5.5z"/><path d="m14 18.5h-4c-.28 0-.5-.22-.5-.5s.22-.5.5-.5h4c.28 0 .5.22.5.5s-.22.5-.5.5z"/><path d="m12 20.5c-.28 0-.5-.22-.5-.5v-4c0-.28.22-.5.5-.5s.5.22.5.5v4c0 .28-.22.5-.5.5z"/></svg>